<mxfile host="app.diagrams.net" modified="2023-06-21T17:32:49.487Z" agent="Mozilla/5.0 (Windows NT 10.0; Win64; x64) AppleWebKit/537.36 (KHTML, like Gecko) Chrome/114.0.0.0 Safari/537.36" etag="qeElr5G4XsJyAqjdtX_4" version="21.5.0">
  <diagram name="Page-1" id="Ar-Yo2_-xW61PNcpCSB_">
    <mxGraphModel dx="989" dy="537" grid="1" gridSize="10" guides="1" tooltips="1" connect="1" arrows="1" fold="1" page="1" pageScale="1" pageWidth="827" pageHeight="1169" math="0" shadow="0">
      <root>
        <mxCell id="0" />
        <mxCell id="1" parent="0" />
        <mxCell id="X5UWJ_JBNC4Q9wHrLlMk-21" value="Employee" style="swimlane;fontStyle=1;align=center;verticalAlign=top;childLayout=stackLayout;horizontal=1;startSize=26;horizontalStack=0;resizeParent=1;resizeParentMax=0;resizeLast=0;collapsible=1;marginBottom=0;whiteSpace=wrap;html=1;" vertex="1" parent="1">
          <mxGeometry x="50" y="40" width="160" height="130" as="geometry" />
        </mxCell>
        <mxCell id="X5UWJ_JBNC4Q9wHrLlMk-22" value="Name" style="text;strokeColor=none;fillColor=none;align=left;verticalAlign=top;spacingLeft=4;spacingRight=4;overflow=hidden;rotatable=0;points=[[0,0.5],[1,0.5]];portConstraint=eastwest;whiteSpace=wrap;html=1;" vertex="1" parent="X5UWJ_JBNC4Q9wHrLlMk-21">
          <mxGeometry y="26" width="160" height="26" as="geometry" />
        </mxCell>
        <mxCell id="X5UWJ_JBNC4Q9wHrLlMk-24" value="Surname&lt;br&gt;" style="text;strokeColor=none;fillColor=none;align=left;verticalAlign=top;spacingLeft=4;spacingRight=4;overflow=hidden;rotatable=0;points=[[0,0.5],[1,0.5]];portConstraint=eastwest;whiteSpace=wrap;html=1;" vertex="1" parent="X5UWJ_JBNC4Q9wHrLlMk-21">
          <mxGeometry y="52" width="160" height="26" as="geometry" />
        </mxCell>
        <mxCell id="X5UWJ_JBNC4Q9wHrLlMk-25" value="Department" style="text;strokeColor=none;fillColor=none;align=left;verticalAlign=top;spacingLeft=4;spacingRight=4;overflow=hidden;rotatable=0;points=[[0,0.5],[1,0.5]];portConstraint=eastwest;whiteSpace=wrap;html=1;" vertex="1" parent="X5UWJ_JBNC4Q9wHrLlMk-21">
          <mxGeometry y="78" width="160" height="26" as="geometry" />
        </mxCell>
        <mxCell id="X5UWJ_JBNC4Q9wHrLlMk-26" value="Role" style="text;strokeColor=none;fillColor=none;align=left;verticalAlign=top;spacingLeft=4;spacingRight=4;overflow=hidden;rotatable=0;points=[[0,0.5],[1,0.5]];portConstraint=eastwest;whiteSpace=wrap;html=1;" vertex="1" parent="X5UWJ_JBNC4Q9wHrLlMk-21">
          <mxGeometry y="104" width="160" height="26" as="geometry" />
        </mxCell>
        <mxCell id="X5UWJ_JBNC4Q9wHrLlMk-27" value="Student" style="swimlane;fontStyle=1;align=center;verticalAlign=top;childLayout=stackLayout;horizontal=1;startSize=26;horizontalStack=0;resizeParent=1;resizeParentMax=0;resizeLast=0;collapsible=1;marginBottom=0;whiteSpace=wrap;html=1;" vertex="1" parent="1">
          <mxGeometry x="650" y="202" width="160" height="182" as="geometry" />
        </mxCell>
        <mxCell id="X5UWJ_JBNC4Q9wHrLlMk-28" value="Name" style="text;strokeColor=none;fillColor=none;align=left;verticalAlign=top;spacingLeft=4;spacingRight=4;overflow=hidden;rotatable=0;points=[[0,0.5],[1,0.5]];portConstraint=eastwest;whiteSpace=wrap;html=1;" vertex="1" parent="X5UWJ_JBNC4Q9wHrLlMk-27">
          <mxGeometry y="26" width="160" height="26" as="geometry" />
        </mxCell>
        <mxCell id="X5UWJ_JBNC4Q9wHrLlMk-29" value="Surname&lt;br&gt;" style="text;strokeColor=none;fillColor=none;align=left;verticalAlign=top;spacingLeft=4;spacingRight=4;overflow=hidden;rotatable=0;points=[[0,0.5],[1,0.5]];portConstraint=eastwest;whiteSpace=wrap;html=1;" vertex="1" parent="X5UWJ_JBNC4Q9wHrLlMk-27">
          <mxGeometry y="52" width="160" height="26" as="geometry" />
        </mxCell>
        <mxCell id="X5UWJ_JBNC4Q9wHrLlMk-30" value="E-mail" style="text;strokeColor=none;fillColor=none;align=left;verticalAlign=top;spacingLeft=4;spacingRight=4;overflow=hidden;rotatable=0;points=[[0,0.5],[1,0.5]];portConstraint=eastwest;whiteSpace=wrap;html=1;" vertex="1" parent="X5UWJ_JBNC4Q9wHrLlMk-27">
          <mxGeometry y="78" width="160" height="26" as="geometry" />
        </mxCell>
        <mxCell id="X5UWJ_JBNC4Q9wHrLlMk-31" value="Address" style="text;strokeColor=none;fillColor=none;align=left;verticalAlign=top;spacingLeft=4;spacingRight=4;overflow=hidden;rotatable=0;points=[[0,0.5],[1,0.5]];portConstraint=eastwest;whiteSpace=wrap;html=1;" vertex="1" parent="X5UWJ_JBNC4Q9wHrLlMk-27">
          <mxGeometry y="104" width="160" height="26" as="geometry" />
        </mxCell>
        <mxCell id="X5UWJ_JBNC4Q9wHrLlMk-32" value="Phone Number" style="text;strokeColor=none;fillColor=none;align=left;verticalAlign=top;spacingLeft=4;spacingRight=4;overflow=hidden;rotatable=0;points=[[0,0.5],[1,0.5]];portConstraint=eastwest;whiteSpace=wrap;html=1;" vertex="1" parent="X5UWJ_JBNC4Q9wHrLlMk-27">
          <mxGeometry y="130" width="160" height="26" as="geometry" />
        </mxCell>
        <mxCell id="X5UWJ_JBNC4Q9wHrLlMk-33" value="Date of Birth" style="text;strokeColor=none;fillColor=none;align=left;verticalAlign=top;spacingLeft=4;spacingRight=4;overflow=hidden;rotatable=0;points=[[0,0.5],[1,0.5]];portConstraint=eastwest;whiteSpace=wrap;html=1;" vertex="1" parent="X5UWJ_JBNC4Q9wHrLlMk-27">
          <mxGeometry y="156" width="160" height="26" as="geometry" />
        </mxCell>
        <mxCell id="X5UWJ_JBNC4Q9wHrLlMk-35" value="Class" style="swimlane;fontStyle=1;align=center;verticalAlign=top;childLayout=stackLayout;horizontal=1;startSize=26;horizontalStack=0;resizeParent=1;resizeParentMax=0;resizeLast=0;collapsible=1;marginBottom=0;whiteSpace=wrap;html=1;" vertex="1" parent="1">
          <mxGeometry x="390" y="332" width="160" height="130" as="geometry" />
        </mxCell>
        <mxCell id="X5UWJ_JBNC4Q9wHrLlMk-36" value="Name" style="text;strokeColor=none;fillColor=none;align=left;verticalAlign=top;spacingLeft=4;spacingRight=4;overflow=hidden;rotatable=0;points=[[0,0.5],[1,0.5]];portConstraint=eastwest;whiteSpace=wrap;html=1;" vertex="1" parent="X5UWJ_JBNC4Q9wHrLlMk-35">
          <mxGeometry y="26" width="160" height="26" as="geometry" />
        </mxCell>
        <mxCell id="X5UWJ_JBNC4Q9wHrLlMk-38" value="Number of Students" style="text;strokeColor=none;fillColor=none;align=left;verticalAlign=top;spacingLeft=4;spacingRight=4;overflow=hidden;rotatable=0;points=[[0,0.5],[1,0.5]];portConstraint=eastwest;whiteSpace=wrap;html=1;" vertex="1" parent="X5UWJ_JBNC4Q9wHrLlMk-35">
          <mxGeometry y="52" width="160" height="26" as="geometry" />
        </mxCell>
        <mxCell id="X5UWJ_JBNC4Q9wHrLlMk-40" value="Duration" style="text;strokeColor=none;fillColor=none;align=left;verticalAlign=top;spacingLeft=4;spacingRight=4;overflow=hidden;rotatable=0;points=[[0,0.5],[1,0.5]];portConstraint=eastwest;whiteSpace=wrap;html=1;" vertex="1" parent="X5UWJ_JBNC4Q9wHrLlMk-35">
          <mxGeometry y="78" width="160" height="26" as="geometry" />
        </mxCell>
        <mxCell id="X5UWJ_JBNC4Q9wHrLlMk-41" value="Start Date" style="text;strokeColor=none;fillColor=none;align=left;verticalAlign=top;spacingLeft=4;spacingRight=4;overflow=hidden;rotatable=0;points=[[0,0.5],[1,0.5]];portConstraint=eastwest;whiteSpace=wrap;html=1;" vertex="1" parent="X5UWJ_JBNC4Q9wHrLlMk-35">
          <mxGeometry y="104" width="160" height="26" as="geometry" />
        </mxCell>
        <mxCell id="X5UWJ_JBNC4Q9wHrLlMk-49" value="Professor" style="swimlane;fontStyle=1;align=center;verticalAlign=top;childLayout=stackLayout;horizontal=1;startSize=26;horizontalStack=0;resizeParent=1;resizeParentMax=0;resizeLast=0;collapsible=1;marginBottom=0;whiteSpace=wrap;html=1;" vertex="1" parent="1">
          <mxGeometry x="50" y="202" width="160" height="156" as="geometry" />
        </mxCell>
        <mxCell id="X5UWJ_JBNC4Q9wHrLlMk-50" value="Name" style="text;strokeColor=none;fillColor=none;align=left;verticalAlign=top;spacingLeft=4;spacingRight=4;overflow=hidden;rotatable=0;points=[[0,0.5],[1,0.5]];portConstraint=eastwest;whiteSpace=wrap;html=1;" vertex="1" parent="X5UWJ_JBNC4Q9wHrLlMk-49">
          <mxGeometry y="26" width="160" height="26" as="geometry" />
        </mxCell>
        <mxCell id="X5UWJ_JBNC4Q9wHrLlMk-51" value="Surname&lt;br&gt;" style="text;strokeColor=none;fillColor=none;align=left;verticalAlign=top;spacingLeft=4;spacingRight=4;overflow=hidden;rotatable=0;points=[[0,0.5],[1,0.5]];portConstraint=eastwest;whiteSpace=wrap;html=1;" vertex="1" parent="X5UWJ_JBNC4Q9wHrLlMk-49">
          <mxGeometry y="52" width="160" height="26" as="geometry" />
        </mxCell>
        <mxCell id="X5UWJ_JBNC4Q9wHrLlMk-52" value="Email" style="text;strokeColor=none;fillColor=none;align=left;verticalAlign=top;spacingLeft=4;spacingRight=4;overflow=hidden;rotatable=0;points=[[0,0.5],[1,0.5]];portConstraint=eastwest;whiteSpace=wrap;html=1;" vertex="1" parent="X5UWJ_JBNC4Q9wHrLlMk-49">
          <mxGeometry y="78" width="160" height="26" as="geometry" />
        </mxCell>
        <mxCell id="X5UWJ_JBNC4Q9wHrLlMk-53" value="Phone Number" style="text;strokeColor=none;fillColor=none;align=left;verticalAlign=top;spacingLeft=4;spacingRight=4;overflow=hidden;rotatable=0;points=[[0,0.5],[1,0.5]];portConstraint=eastwest;whiteSpace=wrap;html=1;" vertex="1" parent="X5UWJ_JBNC4Q9wHrLlMk-49">
          <mxGeometry y="104" width="160" height="26" as="geometry" />
        </mxCell>
        <mxCell id="X5UWJ_JBNC4Q9wHrLlMk-100" value="Subject" style="text;strokeColor=none;fillColor=none;align=left;verticalAlign=top;spacingLeft=4;spacingRight=4;overflow=hidden;rotatable=0;points=[[0,0.5],[1,0.5]];portConstraint=eastwest;whiteSpace=wrap;html=1;" vertex="1" parent="X5UWJ_JBNC4Q9wHrLlMk-49">
          <mxGeometry y="130" width="160" height="26" as="geometry" />
        </mxCell>
        <mxCell id="X5UWJ_JBNC4Q9wHrLlMk-54" value="Grades" style="swimlane;fontStyle=1;align=center;verticalAlign=top;childLayout=stackLayout;horizontal=1;startSize=26;horizontalStack=0;resizeParent=1;resizeParentMax=0;resizeLast=0;collapsible=1;marginBottom=0;whiteSpace=wrap;html=1;" vertex="1" parent="1">
          <mxGeometry x="640" y="520" width="160" height="156" as="geometry" />
        </mxCell>
        <mxCell id="X5UWJ_JBNC4Q9wHrLlMk-55" value="Garde 1" style="text;strokeColor=none;fillColor=none;align=left;verticalAlign=top;spacingLeft=4;spacingRight=4;overflow=hidden;rotatable=0;points=[[0,0.5],[1,0.5]];portConstraint=eastwest;whiteSpace=wrap;html=1;" vertex="1" parent="X5UWJ_JBNC4Q9wHrLlMk-54">
          <mxGeometry y="26" width="160" height="26" as="geometry" />
        </mxCell>
        <mxCell id="X5UWJ_JBNC4Q9wHrLlMk-57" value="Garde 2" style="text;strokeColor=none;fillColor=none;align=left;verticalAlign=top;spacingLeft=4;spacingRight=4;overflow=hidden;rotatable=0;points=[[0,0.5],[1,0.5]];portConstraint=eastwest;whiteSpace=wrap;html=1;" vertex="1" parent="X5UWJ_JBNC4Q9wHrLlMk-54">
          <mxGeometry y="52" width="160" height="26" as="geometry" />
        </mxCell>
        <mxCell id="X5UWJ_JBNC4Q9wHrLlMk-58" value="Garde 3" style="text;strokeColor=none;fillColor=none;align=left;verticalAlign=top;spacingLeft=4;spacingRight=4;overflow=hidden;rotatable=0;points=[[0,0.5],[1,0.5]];portConstraint=eastwest;whiteSpace=wrap;html=1;" vertex="1" parent="X5UWJ_JBNC4Q9wHrLlMk-54">
          <mxGeometry y="78" width="160" height="26" as="geometry" />
        </mxCell>
        <mxCell id="X5UWJ_JBNC4Q9wHrLlMk-60" value="Final Grade" style="text;strokeColor=none;fillColor=none;align=left;verticalAlign=top;spacingLeft=4;spacingRight=4;overflow=hidden;rotatable=0;points=[[0,0.5],[1,0.5]];portConstraint=eastwest;whiteSpace=wrap;html=1;" vertex="1" parent="X5UWJ_JBNC4Q9wHrLlMk-54">
          <mxGeometry y="104" width="160" height="26" as="geometry" />
        </mxCell>
        <mxCell id="X5UWJ_JBNC4Q9wHrLlMk-59" value="Date of Final Grade" style="text;strokeColor=none;fillColor=none;align=left;verticalAlign=top;spacingLeft=4;spacingRight=4;overflow=hidden;rotatable=0;points=[[0,0.5],[1,0.5]];portConstraint=eastwest;whiteSpace=wrap;html=1;" vertex="1" parent="X5UWJ_JBNC4Q9wHrLlMk-54">
          <mxGeometry y="130" width="160" height="26" as="geometry" />
        </mxCell>
        <mxCell id="X5UWJ_JBNC4Q9wHrLlMk-61" value="Academy" style="swimlane;fontStyle=1;align=center;verticalAlign=top;childLayout=stackLayout;horizontal=1;startSize=26;horizontalStack=0;resizeParent=1;resizeParentMax=0;resizeLast=0;collapsible=1;marginBottom=0;whiteSpace=wrap;html=1;" vertex="1" parent="1">
          <mxGeometry x="460" y="40" width="160" height="78" as="geometry" />
        </mxCell>
        <mxCell id="X5UWJ_JBNC4Q9wHrLlMk-62" value="Name" style="text;strokeColor=none;fillColor=none;align=left;verticalAlign=top;spacingLeft=4;spacingRight=4;overflow=hidden;rotatable=0;points=[[0,0.5],[1,0.5]];portConstraint=eastwest;whiteSpace=wrap;html=1;" vertex="1" parent="X5UWJ_JBNC4Q9wHrLlMk-61">
          <mxGeometry y="26" width="160" height="26" as="geometry" />
        </mxCell>
        <mxCell id="X5UWJ_JBNC4Q9wHrLlMk-63" value="Address" style="text;strokeColor=none;fillColor=none;align=left;verticalAlign=top;spacingLeft=4;spacingRight=4;overflow=hidden;rotatable=0;points=[[0,0.5],[1,0.5]];portConstraint=eastwest;whiteSpace=wrap;html=1;" vertex="1" parent="X5UWJ_JBNC4Q9wHrLlMk-61">
          <mxGeometry y="52" width="160" height="26" as="geometry" />
        </mxCell>
        <mxCell id="X5UWJ_JBNC4Q9wHrLlMk-70" value="" style="endArrow=none;startArrow=none;endFill=0;startFill=0;html=1;rounded=0;entryX=0;entryY=0;entryDx=0;entryDy=0;exitX=0.976;exitY=-0.003;exitDx=0;exitDy=0;exitPerimeter=0;" edge="1" parent="1" source="X5UWJ_JBNC4Q9wHrLlMk-21" target="X5UWJ_JBNC4Q9wHrLlMk-61">
          <mxGeometry width="160" relative="1" as="geometry">
            <mxPoint x="210" y="60" as="sourcePoint" />
            <mxPoint x="370" y="60" as="targetPoint" />
          </mxGeometry>
        </mxCell>
        <mxCell id="X5UWJ_JBNC4Q9wHrLlMk-72" value="0 ... *" style="text;align=center;fontStyle=1;verticalAlign=middle;spacingLeft=3;spacingRight=3;strokeColor=none;rotatable=0;points=[[0,0.5],[1,0.5]];portConstraint=eastwest;html=1;" vertex="1" parent="1">
          <mxGeometry x="150" y="14" width="80" height="26" as="geometry" />
        </mxCell>
        <mxCell id="X5UWJ_JBNC4Q9wHrLlMk-73" value="works for &amp;gt;" style="text;align=center;fontStyle=1;verticalAlign=middle;spacingLeft=3;spacingRight=3;strokeColor=none;rotatable=0;points=[[0,0.5],[1,0.5]];portConstraint=eastwest;html=1;" vertex="1" parent="1">
          <mxGeometry x="200" y="20" width="80" height="26" as="geometry" />
        </mxCell>
        <mxCell id="X5UWJ_JBNC4Q9wHrLlMk-75" value="" style="endArrow=none;startArrow=none;endFill=0;startFill=0;html=1;rounded=0;entryX=-0.005;entryY=0.065;entryDx=0;entryDy=0;exitX=0.976;exitY=-0.003;exitDx=0;exitDy=0;exitPerimeter=0;entryPerimeter=0;" edge="1" parent="1" source="X5UWJ_JBNC4Q9wHrLlMk-76" target="X5UWJ_JBNC4Q9wHrLlMk-61">
          <mxGeometry width="160" relative="1" as="geometry">
            <mxPoint x="206" y="229.31" as="sourcePoint" />
            <mxPoint x="360" y="229.31" as="targetPoint" />
          </mxGeometry>
        </mxCell>
        <mxCell id="X5UWJ_JBNC4Q9wHrLlMk-77" value="" style="endArrow=none;startArrow=none;endFill=0;startFill=0;html=1;rounded=0;entryX=-0.005;entryY=0.065;entryDx=0;entryDy=0;entryPerimeter=0;exitX=1.015;exitY=0.104;exitDx=0;exitDy=0;exitPerimeter=0;" edge="1" parent="1" source="X5UWJ_JBNC4Q9wHrLlMk-49" target="X5UWJ_JBNC4Q9wHrLlMk-76">
          <mxGeometry width="160" relative="1" as="geometry">
            <mxPoint x="220" y="210" as="sourcePoint" />
            <mxPoint x="359" y="45" as="targetPoint" />
          </mxGeometry>
        </mxCell>
        <mxCell id="X5UWJ_JBNC4Q9wHrLlMk-76" value="works for &amp;gt;" style="text;align=center;fontStyle=1;verticalAlign=middle;spacingLeft=3;spacingRight=3;strokeColor=default;rotatable=0;points=[[0,0.5],[1,0.5]];portConstraint=eastwest;html=1;" vertex="1" parent="1">
          <mxGeometry x="310" y="136" width="80" height="26" as="geometry" />
        </mxCell>
        <mxCell id="X5UWJ_JBNC4Q9wHrLlMk-81" value="" style="endArrow=none;startArrow=none;endFill=0;startFill=0;html=1;rounded=0;exitX=0;exitY=0;exitDx=0;exitDy=0;entryX=0;entryY=0;entryDx=0;entryDy=0;" edge="1" parent="1" source="X5UWJ_JBNC4Q9wHrLlMk-82" target="X5UWJ_JBNC4Q9wHrLlMk-27">
          <mxGeometry width="160" relative="1" as="geometry">
            <mxPoint x="260" y="440" as="sourcePoint" />
            <mxPoint x="360" y="190" as="targetPoint" />
          </mxGeometry>
        </mxCell>
        <mxCell id="X5UWJ_JBNC4Q9wHrLlMk-83" value="" style="endArrow=none;startArrow=none;endFill=0;startFill=0;html=1;rounded=0;exitX=0.97;exitY=0.003;exitDx=0;exitDy=0;entryX=0;entryY=0;entryDx=0;entryDy=0;exitPerimeter=0;" edge="1" parent="1" source="X5UWJ_JBNC4Q9wHrLlMk-61" target="X5UWJ_JBNC4Q9wHrLlMk-82">
          <mxGeometry width="160" relative="1" as="geometry">
            <mxPoint x="460" y="40" as="sourcePoint" />
            <mxPoint x="360" y="200" as="targetPoint" />
          </mxGeometry>
        </mxCell>
        <mxCell id="X5UWJ_JBNC4Q9wHrLlMk-82" value="&amp;lt; registered at&amp;nbsp;" style="text;align=center;fontStyle=1;verticalAlign=middle;spacingLeft=3;spacingRight=3;strokeColor=none;rotatable=0;points=[[0,0.5],[1,0.5]];portConstraint=eastwest;html=1;" vertex="1" parent="1">
          <mxGeometry x="640" y="110" width="80" height="26" as="geometry" />
        </mxCell>
        <mxCell id="X5UWJ_JBNC4Q9wHrLlMk-84" value="" style="endArrow=none;startArrow=none;endFill=0;startFill=0;html=1;rounded=0;entryX=0;entryY=0;entryDx=0;entryDy=0;exitX=0.976;exitY=-0.003;exitDx=0;exitDy=0;exitPerimeter=0;" edge="1" parent="1" target="X5UWJ_JBNC4Q9wHrLlMk-27">
          <mxGeometry width="160" relative="1" as="geometry">
            <mxPoint x="213" y="202" as="sourcePoint" />
            <mxPoint x="467" y="202" as="targetPoint" />
          </mxGeometry>
        </mxCell>
        <mxCell id="X5UWJ_JBNC4Q9wHrLlMk-85" value="0 ... *" style="text;align=center;fontStyle=1;verticalAlign=middle;spacingLeft=3;spacingRight=3;strokeColor=none;rotatable=0;points=[[0,0.5],[1,0.5]];portConstraint=eastwest;html=1;" vertex="1" parent="1">
          <mxGeometry x="160" y="178" width="80" height="26" as="geometry" />
        </mxCell>
        <mxCell id="X5UWJ_JBNC4Q9wHrLlMk-86" value="0 ... *" style="text;align=center;fontStyle=1;verticalAlign=middle;spacingLeft=3;spacingRight=3;strokeColor=none;rotatable=0;points=[[0,0.5],[1,0.5]];portConstraint=eastwest;html=1;" vertex="1" parent="1">
          <mxGeometry x="630" y="176" width="80" height="26" as="geometry" />
        </mxCell>
        <mxCell id="X5UWJ_JBNC4Q9wHrLlMk-87" value="teaches &amp;gt;" style="text;align=center;fontStyle=1;verticalAlign=middle;spacingLeft=3;spacingRight=3;strokeColor=none;rotatable=0;points=[[0,0.5],[1,0.5]];portConstraint=eastwest;html=1;" vertex="1" parent="1">
          <mxGeometry x="260" y="176" width="80" height="26" as="geometry" />
        </mxCell>
        <mxCell id="X5UWJ_JBNC4Q9wHrLlMk-88" value="&amp;lt; learns from" style="text;align=center;fontStyle=1;verticalAlign=middle;spacingLeft=3;spacingRight=3;strokeColor=none;rotatable=0;points=[[0,0.5],[1,0.5]];portConstraint=eastwest;html=1;" vertex="1" parent="1">
          <mxGeometry x="540" y="204" width="80" height="26" as="geometry" />
        </mxCell>
        <mxCell id="X5UWJ_JBNC4Q9wHrLlMk-90" value="1" style="text;align=center;fontStyle=1;verticalAlign=middle;spacingLeft=3;spacingRight=3;strokeColor=none;rotatable=0;points=[[0,0.5],[1,0.5]];portConstraint=eastwest;html=1;" vertex="1" parent="1">
          <mxGeometry x="525" y="310" width="30" height="23" as="geometry" />
        </mxCell>
        <mxCell id="X5UWJ_JBNC4Q9wHrLlMk-93" value="" style="endArrow=none;startArrow=none;endFill=0;startFill=0;html=1;rounded=0;exitX=0.998;exitY=0.972;exitDx=0;exitDy=0;exitPerimeter=0;entryX=0;entryY=0;entryDx=0;entryDy=0;" edge="1" parent="1" source="X5UWJ_JBNC4Q9wHrLlMk-53" target="X5UWJ_JBNC4Q9wHrLlMk-35">
          <mxGeometry width="160" relative="1" as="geometry">
            <mxPoint x="180" y="350" as="sourcePoint" />
            <mxPoint x="340" y="400" as="targetPoint" />
          </mxGeometry>
        </mxCell>
        <mxCell id="X5UWJ_JBNC4Q9wHrLlMk-94" value="" style="endArrow=diamond;startArrow=none;endFill=1;startFill=0;html=1;rounded=0;entryX=0.023;entryY=0.988;entryDx=0;entryDy=0;entryPerimeter=0;exitX=1;exitY=0;exitDx=0;exitDy=0;" edge="1" parent="1" source="X5UWJ_JBNC4Q9wHrLlMk-35" target="X5UWJ_JBNC4Q9wHrLlMk-33">
          <mxGeometry width="160" relative="1" as="geometry">
            <mxPoint x="510" y="400" as="sourcePoint" />
            <mxPoint x="647" y="382" as="targetPoint" />
            <Array as="points" />
          </mxGeometry>
        </mxCell>
        <mxCell id="X5UWJ_JBNC4Q9wHrLlMk-91" value="1 stud ... *" style="text;align=center;fontStyle=1;verticalAlign=middle;spacingLeft=3;spacingRight=3;strokeColor=none;rotatable=0;points=[[0,0.5],[1,0.5]];portConstraint=eastwest;html=1;" vertex="1" parent="1">
          <mxGeometry x="580" y="380" width="80" height="4" as="geometry" />
        </mxCell>
        <mxCell id="X5UWJ_JBNC4Q9wHrLlMk-95" value="1 ... *" style="text;align=center;fontStyle=1;verticalAlign=middle;spacingLeft=3;spacingRight=3;strokeColor=none;rotatable=0;points=[[0,0.5],[1,0.5]];portConstraint=eastwest;html=1;" vertex="1" parent="1">
          <mxGeometry x="360" y="333" width="30" height="23" as="geometry" />
        </mxCell>
        <mxCell id="X5UWJ_JBNC4Q9wHrLlMk-96" value="1&amp;nbsp;" style="text;align=center;fontStyle=1;verticalAlign=middle;spacingLeft=3;spacingRight=3;strokeColor=none;rotatable=0;points=[[0,0.5],[1,0.5]];portConstraint=eastwest;html=1;" vertex="1" parent="1">
          <mxGeometry x="210" y="309" width="30" height="23" as="geometry" />
        </mxCell>
        <mxCell id="X5UWJ_JBNC4Q9wHrLlMk-97" value="&amp;lt;&amp;nbsp;teached by" style="text;align=center;fontStyle=1;verticalAlign=middle;spacingLeft=3;spacingRight=3;strokeColor=none;rotatable=0;points=[[0,0.5],[1,0.5]];portConstraint=eastwest;html=1;" vertex="1" parent="1">
          <mxGeometry x="270" y="306" width="80" height="26" as="geometry" />
        </mxCell>
        <mxCell id="X5UWJ_JBNC4Q9wHrLlMk-98" value="teaches &amp;gt;" style="text;align=center;fontStyle=1;verticalAlign=middle;spacingLeft=3;spacingRight=3;strokeColor=none;rotatable=0;points=[[0,0.5],[1,0.5]];portConstraint=eastwest;html=1;" vertex="1" parent="1">
          <mxGeometry x="270" y="330" width="80" height="26" as="geometry" />
        </mxCell>
        <mxCell id="X5UWJ_JBNC4Q9wHrLlMk-101" value="" style="endArrow=diamond;startArrow=none;endFill=1;startFill=0;html=1;rounded=0;entryX=0.83;entryY=1.041;entryDx=0;entryDy=0;exitX=0;exitY=0;exitDx=0;exitDy=0;entryPerimeter=0;" edge="1" parent="1" source="X5UWJ_JBNC4Q9wHrLlMk-54" target="X5UWJ_JBNC4Q9wHrLlMk-33">
          <mxGeometry width="160" relative="1" as="geometry">
            <mxPoint x="810" y="380" as="sourcePoint" />
            <mxPoint x="764" y="455" as="targetPoint" />
            <Array as="points" />
          </mxGeometry>
        </mxCell>
        <mxCell id="X5UWJ_JBNC4Q9wHrLlMk-102" value="1" style="text;align=center;fontStyle=1;verticalAlign=middle;spacingLeft=3;spacingRight=3;strokeColor=none;rotatable=0;points=[[0,0.5],[1,0.5]];portConstraint=eastwest;html=1;" vertex="1" parent="1">
          <mxGeometry x="730" y="387" width="40" height="20" as="geometry" />
        </mxCell>
      </root>
    </mxGraphModel>
  </diagram>
</mxfile>
